<?xml version="1.0" standalone="no"?>
<!DOCTYPE svg PUBLIC "-//W3C//DTD SVG 20010904//EN"
 "http://www.w3.org/TR/2001/REC-SVG-20010904/DTD/svg10.dtd">
<svg version="1.0" xmlns="http://www.w3.org/2000/svg"
 width="56.000000pt" height="61.000000pt" viewBox="0 0 56.000000 61.000000"
 preserveAspectRatio="xMidYMid meet">
<metadata>
Created by potrace 1.10, written by Peter Selinger 2001-2011
</metadata>
<g transform="translate(0.000000,61.000000) scale(0.100000,-0.100000)"
fill="#000000" stroke="none">
<path d="M185 593 c-30 -8 -112 -70 -136 -104 -24 -34 -53 -119 -40 -119 18 0
78 85 73 103 -2 5 3 7 10 5 10 -4 13 -44 15 -162 1 -145 3 -160 22 -177 11
-10 33 -19 48 -19 30 1 73 30 73 50 0 7 16 -2 35 -19 25 -22 46 -31 70 -31 19
0 35 -3 35 -7 0 -30 -23 -82 -38 -85 -9 -3 -57 8 -106 23 -78 24 -95 34 -138
78 -30 32 -46 56 -42 63 4 7 4 10 0 6 -4 -3 -21 8 -37 25 l-29 32 6 -30 c16
-77 85 -153 174 -192 19 -8 78 -18 132 -22 l96 -6 5 31 c3 17 24 70 47 118 50
104 60 155 36 190 -32 50 -120 42 -171 -14 -15 -17 -13 -24 29 -91 25 -41 46
-76 46 -79 0 -4 -19 -4 -42 -1 -39 5 -46 11 -73 57 l-31 51 -23 -18 c-17 -14
-22 -27 -20 -51 3 -37 2 -38 -41 -38 l-30 0 0 160 0 160 35 0 35 0 0 -59 c0
-43 -6 -70 -22 -97 -20 -34 -20 -36 -2 -26 10 6 60 50 111 99 96 92 114 123
97 172 -10 26 -41 37 -36 12 4 -21 -8 -52 -19 -46 -5 4 -9 2 -9 -4 0 -5 6 -12
13 -15 9 -5 9 -7 -1 -12 -6 -3 -10 -9 -8 -13 7 -11 -62 -73 -74 -66 -5 3 -10
14 -10 24 0 9 -5 22 -12 29 -7 7 -8 12 -3 12 6 1 -1 7 -15 15 -21 12 -22 14
-6 15 34 0 3 16 -38 19 -5 1 3 11 17 24 26 22 35 38 20 36 -5 -1 -17 -4 -28
-6z m269 -269 c9 -8 16 -24 16 -35 0 -28 -27 -89 -39 -89 -6 0 -24 24 -41 53
l-30 52 21 18 c26 21 53 22 73 1z"/>
</g>
</svg>
