<svg xmlns="http://www.w3.org/2000/svg" width="56" height="61" viewBox="0 0 56 61">
<g>
<path d="M 42.06 56.72 L 41.26 61.00 L 0.00 61.00 L 0.00 0.00 L 0.09 21.50 L 2.46 17.00 C5.46,11.30 10.76,6.23 14.00,5.97 C15.38,5.87 21.79,5.83 28.25,5.89 C39.90,6.00 40.00,6.02 40.00,8.36 C40.00,9.66 38.64,12.44 36.98,14.53 C33.68,18.68 20.02,30.94 18.65,30.98 C18.18,30.99 18.75,29.40 19.90,27.44 C21.27,25.12 22.00,22.17 22.00,18.94 L 22.00 14.00 L 14.95 14.00 L 15.22 29.75 L 15.50 45.50 L 18.50 45.50 C21.28,45.50 21.52,45.20 21.82,41.51 C22.15,37.54 23.44,35.00 25.13,35.00 C25.62,35.00 27.61,37.47 29.54,40.50 C32.70,45.43 33.42,46.00 36.53,46.00 C38.44,46.00 40.00,45.53 40.00,44.95 C40.00,44.38 38.49,41.55 36.65,38.67 C36.43,38.33 36.22,37.99 36.02,37.68 C32.61,32.36 31.37,30.42 31.84,29.08 C32.14,28.23 33.14,27.62 34.72,26.54 C39.75,23.12 47.16,22.96 49.44,26.22 C52.02,29.91 51.31,34.97 46.93,44.03 C44.69,48.66 42.50,54.37 42.06,56.72 ZM 0.14 38.50 L 0.00 61.00 L 14.25 60.90 C24.85,60.82 27.54,60.57 24.75,59.91 C15.16,57.66 5.34,50.16 1.93,42.50 Z" fill="rgb(28,68,8)"/>
<path d="M 0.00 0.00 L 46.35 0.00 C37.05,0.00 36.75,0.07 38.35,1.83 C39.66,3.28 40.18,5.33 39.97,7.55 C39.77,6.01 38.36,5.98 28.25,5.89 C21.79,5.83 15.38,5.87 14.00,5.97 C12.38,6.10 10.25,7.43 8.14,9.44 C11.06,6.44 14.42,3.86 17.50,2.44 L 22.50 0.12 ZM 0.09 21.49 L 2.15 17.50 C2.53,16.76 2.97,16.02 3.45,15.27 C3.10,15.84 2.77,16.42 2.46,17.00 L 0.09 21.50 Z" fill="rgb(123,132,44)"/>
<path d="M 0.07 49.75 L 0.14 38.50 L 1.93 42.50 C5.34,50.16 15.16,57.66 24.75,59.91 C27.54,60.57 24.85,60.82 14.25,60.90 L 0.00 61.00 L 0.07 49.75 ZM 42.06 56.72 C42.50,54.37 44.69,48.66 46.93,44.03 C51.31,34.97 52.02,29.91 49.44,26.22 C47.16,22.96 39.75,23.12 34.72,26.54 C30.51,29.41 30.43,28.95 36.65,38.67 C38.49,41.55 40.00,44.38 40.00,44.95 C40.00,45.53 38.44,46.00 36.53,46.00 C33.42,46.00 32.70,45.43 29.54,40.50 C27.61,37.47 25.62,35.00 25.13,35.00 C23.44,35.00 22.15,37.54 21.82,41.51 C21.52,45.20 21.28,45.50 18.50,45.50 L 15.50 45.50 L 15.22 29.75 L 14.95 14.00 L 18.47 14.00 L 22.00 14.00 L 22.00 18.94 C22.00,22.17 21.27,25.12 19.90,27.44 C18.75,29.40 18.18,30.99 18.65,30.98 C20.02,30.94 33.68,18.68 36.98,14.53 C40.43,10.18 41.01,4.78 38.35,1.83 C36.75,0.07 37.05,0.00 46.35,0.00 L 56.00 0.00 L 56.00 30.50 L 56.00 61.00 L 48.63 61.00 L 41.26 61.00 L 42.06 56.72 ZM 0.04 10.75 L 0.00 0.00 L 11.25 0.06 L 22.50 0.12 L 17.50 2.44 C11.84,5.07 5.21,11.57 2.15,17.50 L 0.09 21.50 L 0.04 10.75 Z" fill="rgb(250,253,247)"/>
</g>
</svg>